G04*
G04 #@! TF.GenerationSoftware,Altium Limited,Altium Designer,20.0.12 (288)*
G04*
G04 Layer_Color=8421504*
%FSLAX25Y25*%
%MOIN*%
G70*
G01*
G75*
%ADD13R,0.00866X0.02008*%
%ADD14R,0.01378X0.01732*%
%ADD15R,0.00866X0.02933*%
%ADD16R,0.00787X0.02480*%
G36*
X40512Y13248D02*
X39803D01*
Y14961D01*
X40512D01*
Y13248D01*
D02*
G37*
G36*
X39134D02*
X38425D01*
Y14961D01*
X39134D01*
Y13248D01*
D02*
G37*
G36*
X37756D02*
X37047D01*
Y14961D01*
X37756D01*
Y13248D01*
D02*
G37*
G36*
X36378D02*
X35669D01*
Y14961D01*
X36378D01*
Y13248D01*
D02*
G37*
G36*
X35000D02*
X34291D01*
Y14961D01*
X35000D01*
Y13248D01*
D02*
G37*
G36*
X33622D02*
X32913D01*
Y14961D01*
X33622D01*
Y13248D01*
D02*
G37*
G36*
X32244D02*
X31535D01*
Y14961D01*
X32244D01*
Y13248D01*
D02*
G37*
G36*
X30866D02*
X30158D01*
Y14961D01*
X30866D01*
Y13248D01*
D02*
G37*
G36*
X29488D02*
X28780D01*
Y14961D01*
X29488D01*
Y13248D01*
D02*
G37*
G36*
X28110D02*
X27402D01*
Y14961D01*
X28110D01*
Y13248D01*
D02*
G37*
G36*
X26732D02*
X26024D01*
Y14961D01*
X26732D01*
Y13248D01*
D02*
G37*
G36*
X25354D02*
X24646D01*
Y14961D01*
X25354D01*
Y13248D01*
D02*
G37*
G36*
X23976D02*
X23268D01*
Y14961D01*
X23976D01*
Y13248D01*
D02*
G37*
G36*
X22598D02*
X21890D01*
Y14961D01*
X22598D01*
Y13248D01*
D02*
G37*
G36*
X21220D02*
X20512D01*
Y14961D01*
X21220D01*
Y13248D01*
D02*
G37*
G36*
X19842D02*
X19134D01*
Y14961D01*
X19842D01*
Y13248D01*
D02*
G37*
G36*
X18465D02*
X17756D01*
Y14961D01*
X18465D01*
Y13248D01*
D02*
G37*
G36*
X17087D02*
X16378D01*
Y14961D01*
X17087D01*
Y13248D01*
D02*
G37*
G36*
X15709D02*
X15000D01*
Y14961D01*
X15709D01*
Y13248D01*
D02*
G37*
G36*
X14331D02*
X13622D01*
Y14961D01*
X14331D01*
Y13248D01*
D02*
G37*
G36*
X12953D02*
X12244D01*
Y14961D01*
X12953D01*
Y13248D01*
D02*
G37*
G36*
X11575D02*
X10866D01*
Y14961D01*
X11575D01*
Y13248D01*
D02*
G37*
G36*
X10197D02*
X9488D01*
Y14961D01*
X10197D01*
Y13248D01*
D02*
G37*
G36*
X8819D02*
X8110D01*
Y14961D01*
X8819D01*
Y13248D01*
D02*
G37*
G36*
X7441D02*
X6732D01*
Y14961D01*
X7441D01*
Y13248D01*
D02*
G37*
G36*
X42480Y12480D02*
X41850D01*
Y14961D01*
X42480D01*
Y12480D01*
D02*
G37*
G36*
X5394D02*
X4764D01*
Y14961D01*
X5394D01*
Y12480D01*
D02*
G37*
G36*
X42480Y6693D02*
X41850D01*
Y9173D01*
X42480D01*
Y6693D01*
D02*
G37*
G36*
X40512D02*
X39803D01*
Y8405D01*
X40512D01*
Y6693D01*
D02*
G37*
G36*
X39134D02*
X38425D01*
Y8405D01*
X39134D01*
Y6693D01*
D02*
G37*
G36*
X37756D02*
X37047D01*
Y8405D01*
X37756D01*
Y6693D01*
D02*
G37*
G36*
X36378D02*
X35669D01*
Y8405D01*
X36378D01*
Y6693D01*
D02*
G37*
G36*
X35000D02*
X34291D01*
Y8405D01*
X35000D01*
Y6693D01*
D02*
G37*
G36*
X33622D02*
X32913D01*
Y8405D01*
X33622D01*
Y6693D01*
D02*
G37*
G36*
X32244D02*
X31535D01*
Y8405D01*
X32244D01*
Y6693D01*
D02*
G37*
G36*
X30866D02*
X30158D01*
Y8405D01*
X30866D01*
Y6693D01*
D02*
G37*
G36*
X29488D02*
X28780D01*
Y8405D01*
X29488D01*
Y6693D01*
D02*
G37*
G36*
X28110D02*
X27402D01*
Y8405D01*
X28110D01*
Y6693D01*
D02*
G37*
G36*
X26732D02*
X26024D01*
Y8405D01*
X26732D01*
Y6693D01*
D02*
G37*
G36*
X25354D02*
X24646D01*
Y8405D01*
X25354D01*
Y6693D01*
D02*
G37*
G36*
X23976D02*
X23268D01*
Y8405D01*
X23976D01*
Y6693D01*
D02*
G37*
G36*
X22598D02*
X21890D01*
Y8405D01*
X22598D01*
Y6693D01*
D02*
G37*
G36*
X21220D02*
X20512D01*
Y8405D01*
X21220D01*
Y6693D01*
D02*
G37*
G36*
X19842D02*
X19134D01*
Y8405D01*
X19842D01*
Y6693D01*
D02*
G37*
G36*
X18465D02*
X17756D01*
Y8405D01*
X18465D01*
Y6693D01*
D02*
G37*
G36*
X17087D02*
X16378D01*
Y8405D01*
X17087D01*
Y6693D01*
D02*
G37*
G36*
X15709D02*
X15000D01*
Y8405D01*
X15709D01*
Y6693D01*
D02*
G37*
G36*
X14331D02*
X13622D01*
Y8405D01*
X14331D01*
Y6693D01*
D02*
G37*
G36*
X12953D02*
X12244D01*
Y8405D01*
X12953D01*
Y6693D01*
D02*
G37*
G36*
X11575D02*
X10866D01*
Y8405D01*
X11575D01*
Y6693D01*
D02*
G37*
G36*
X10197D02*
X9488D01*
Y8405D01*
X10197D01*
Y6693D01*
D02*
G37*
G36*
X8819D02*
X8110D01*
Y8405D01*
X8819D01*
Y6693D01*
D02*
G37*
G36*
X7441D02*
X6732D01*
Y8405D01*
X7441D01*
Y6693D01*
D02*
G37*
G36*
X5394D02*
X4764D01*
Y9173D01*
X5394D01*
Y6693D01*
D02*
G37*
G36*
X45335Y53583D02*
X44232D01*
Y55315D01*
X45335D01*
Y53583D01*
D02*
G37*
G36*
X3012D02*
X1909D01*
Y55315D01*
X3012D01*
Y53583D01*
D02*
G37*
G36*
X40512Y53307D02*
X39803D01*
Y55315D01*
X40512D01*
Y53307D01*
D02*
G37*
G36*
X39134D02*
X38425D01*
Y55315D01*
X39134D01*
Y53307D01*
D02*
G37*
G36*
X37756D02*
X37047D01*
Y55315D01*
X37756D01*
Y53307D01*
D02*
G37*
G36*
X36378D02*
X35669D01*
Y55315D01*
X36378D01*
Y53307D01*
D02*
G37*
G36*
X35000D02*
X34291D01*
Y55315D01*
X35000D01*
Y53307D01*
D02*
G37*
G36*
X33622D02*
X32913D01*
Y55315D01*
X33622D01*
Y53307D01*
D02*
G37*
G36*
X32244D02*
X31535D01*
Y55315D01*
X32244D01*
Y53307D01*
D02*
G37*
G36*
X30866D02*
X30158D01*
Y55315D01*
X30866D01*
Y53307D01*
D02*
G37*
G36*
X29488D02*
X28780D01*
Y55315D01*
X29488D01*
Y53307D01*
D02*
G37*
G36*
X28110D02*
X27402D01*
Y55315D01*
X28110D01*
Y53307D01*
D02*
G37*
G36*
X26732D02*
X26024D01*
Y55315D01*
X26732D01*
Y53307D01*
D02*
G37*
G36*
X25354D02*
X24646D01*
Y55315D01*
X25354D01*
Y53307D01*
D02*
G37*
G36*
X23976D02*
X23268D01*
Y55315D01*
X23976D01*
Y53307D01*
D02*
G37*
G36*
X22598D02*
X21890D01*
Y55315D01*
X22598D01*
Y53307D01*
D02*
G37*
G36*
X21220D02*
X20512D01*
Y55315D01*
X21220D01*
Y53307D01*
D02*
G37*
G36*
X19842D02*
X19134D01*
Y55315D01*
X19842D01*
Y53307D01*
D02*
G37*
G36*
X18465D02*
X17756D01*
Y55315D01*
X18465D01*
Y53307D01*
D02*
G37*
G36*
X17087D02*
X16378D01*
Y55315D01*
X17087D01*
Y53307D01*
D02*
G37*
G36*
X15709D02*
X15000D01*
Y55315D01*
X15709D01*
Y53307D01*
D02*
G37*
G36*
X14331D02*
X13622D01*
Y55315D01*
X14331D01*
Y53307D01*
D02*
G37*
G36*
X12953D02*
X12244D01*
Y55315D01*
X12953D01*
Y53307D01*
D02*
G37*
G36*
X11575D02*
X10866D01*
Y55315D01*
X11575D01*
Y53307D01*
D02*
G37*
G36*
X10197D02*
X9488D01*
Y55315D01*
X10197D01*
Y53307D01*
D02*
G37*
G36*
X8819D02*
X8110D01*
Y55315D01*
X8819D01*
Y53307D01*
D02*
G37*
G36*
X7441D02*
X6732D01*
Y55315D01*
X7441D01*
Y53307D01*
D02*
G37*
G36*
X45335Y45079D02*
X44232D01*
Y46811D01*
X45335D01*
Y45079D01*
D02*
G37*
G36*
X40512D02*
X39803D01*
Y47087D01*
X40512D01*
Y45079D01*
D02*
G37*
G36*
X39134D02*
X38425D01*
Y47087D01*
X39134D01*
Y45079D01*
D02*
G37*
G36*
X37756D02*
X37047D01*
Y47087D01*
X37756D01*
Y45079D01*
D02*
G37*
G36*
X36378D02*
X35669D01*
Y47087D01*
X36378D01*
Y45079D01*
D02*
G37*
G36*
X35000D02*
X34291D01*
Y47087D01*
X35000D01*
Y45079D01*
D02*
G37*
G36*
X33622D02*
X32913D01*
Y47087D01*
X33622D01*
Y45079D01*
D02*
G37*
G36*
X32244D02*
X31535D01*
Y47087D01*
X32244D01*
Y45079D01*
D02*
G37*
G36*
X30866D02*
X30158D01*
Y47087D01*
X30866D01*
Y45079D01*
D02*
G37*
G36*
X29488D02*
X28780D01*
Y47087D01*
X29488D01*
Y45079D01*
D02*
G37*
G36*
X28110D02*
X27402D01*
Y47087D01*
X28110D01*
Y45079D01*
D02*
G37*
G36*
X26732D02*
X26024D01*
Y47087D01*
X26732D01*
Y45079D01*
D02*
G37*
G36*
X25354D02*
X24646D01*
Y47087D01*
X25354D01*
Y45079D01*
D02*
G37*
G36*
X23976D02*
X23268D01*
Y47087D01*
X23976D01*
Y45079D01*
D02*
G37*
G36*
X22598D02*
X21890D01*
Y47087D01*
X22598D01*
Y45079D01*
D02*
G37*
G36*
X21220D02*
X20512D01*
Y47087D01*
X21220D01*
Y45079D01*
D02*
G37*
G36*
X19842D02*
X19134D01*
Y47087D01*
X19842D01*
Y45079D01*
D02*
G37*
G36*
X18465D02*
X17756D01*
Y47087D01*
X18465D01*
Y45079D01*
D02*
G37*
G36*
X17087D02*
X16378D01*
Y47087D01*
X17087D01*
Y45079D01*
D02*
G37*
G36*
X15709D02*
X15000D01*
Y47087D01*
X15709D01*
Y45079D01*
D02*
G37*
G36*
X14331D02*
X13622D01*
Y47087D01*
X14331D01*
Y45079D01*
D02*
G37*
G36*
X12953D02*
X12244D01*
Y47087D01*
X12953D01*
Y45079D01*
D02*
G37*
G36*
X11575D02*
X10866D01*
Y47087D01*
X11575D01*
Y45079D01*
D02*
G37*
G36*
X10197D02*
X9488D01*
Y47087D01*
X10197D01*
Y45079D01*
D02*
G37*
G36*
X8819D02*
X8110D01*
Y47087D01*
X8819D01*
Y45079D01*
D02*
G37*
G36*
X7441D02*
X6732D01*
Y47087D01*
X7441D01*
Y45079D01*
D02*
G37*
G36*
X3012D02*
X1909D01*
Y46811D01*
X3012D01*
Y45079D01*
D02*
G37*
D13*
X40157Y46083D02*
D03*
Y54311D02*
D03*
X38780Y46083D02*
D03*
Y54311D02*
D03*
X37402Y46083D02*
D03*
Y54311D02*
D03*
X36024Y46083D02*
D03*
Y54311D02*
D03*
X34646Y46083D02*
D03*
Y54311D02*
D03*
X33268Y46083D02*
D03*
Y54311D02*
D03*
X31890Y46083D02*
D03*
Y54311D02*
D03*
X30512Y46083D02*
D03*
Y54311D02*
D03*
X29134Y46083D02*
D03*
Y54311D02*
D03*
X27756Y46083D02*
D03*
Y54311D02*
D03*
X26378Y46083D02*
D03*
Y54311D02*
D03*
X25000Y46083D02*
D03*
Y54311D02*
D03*
X23622Y46083D02*
D03*
Y54311D02*
D03*
X22244Y46083D02*
D03*
Y54311D02*
D03*
X20866Y46083D02*
D03*
Y54311D02*
D03*
X19488Y46083D02*
D03*
Y54311D02*
D03*
X18110Y46083D02*
D03*
Y54311D02*
D03*
X16732Y46083D02*
D03*
Y54311D02*
D03*
X15354Y46083D02*
D03*
Y54311D02*
D03*
X13976Y46083D02*
D03*
Y54311D02*
D03*
X12598Y46083D02*
D03*
Y54311D02*
D03*
X11220Y46083D02*
D03*
Y54311D02*
D03*
X9843Y46083D02*
D03*
Y54311D02*
D03*
X8465Y46083D02*
D03*
Y54311D02*
D03*
X7087Y46083D02*
D03*
Y54311D02*
D03*
D14*
X44783Y45945D02*
D03*
X2461D02*
D03*
X44783Y54449D02*
D03*
X2461D02*
D03*
D15*
X7087Y8159D02*
D03*
Y13494D02*
D03*
X8465Y8159D02*
D03*
Y13494D02*
D03*
X9843Y8159D02*
D03*
Y13494D02*
D03*
X11220Y8159D02*
D03*
Y13494D02*
D03*
X12598Y8159D02*
D03*
Y13494D02*
D03*
X13976Y8159D02*
D03*
Y13494D02*
D03*
X15354Y8159D02*
D03*
Y13494D02*
D03*
X16732Y8159D02*
D03*
Y13494D02*
D03*
X18110Y8159D02*
D03*
Y13494D02*
D03*
X19488Y8159D02*
D03*
Y13494D02*
D03*
X20866Y8159D02*
D03*
Y13494D02*
D03*
X22244Y8159D02*
D03*
Y13494D02*
D03*
X23622Y8159D02*
D03*
Y13494D02*
D03*
X25000Y8159D02*
D03*
Y13494D02*
D03*
X26378Y8159D02*
D03*
Y13494D02*
D03*
X27756Y8159D02*
D03*
Y13494D02*
D03*
X29134Y8159D02*
D03*
Y13494D02*
D03*
X30512Y8159D02*
D03*
Y13494D02*
D03*
X31890Y8159D02*
D03*
Y13494D02*
D03*
X33268Y8159D02*
D03*
Y13494D02*
D03*
X34646Y8159D02*
D03*
Y13494D02*
D03*
X36024Y8159D02*
D03*
Y13494D02*
D03*
X37402Y8159D02*
D03*
Y13494D02*
D03*
X38780Y8159D02*
D03*
Y13494D02*
D03*
X40157Y8159D02*
D03*
Y13494D02*
D03*
D16*
X5079Y7933D02*
D03*
Y13721D02*
D03*
X42165Y7933D02*
D03*
Y13721D02*
D03*
M02*
