G04*
G04 #@! TF.GenerationSoftware,Altium Limited,Altium Designer,20.0.12 (288)*
G04*
G04 Layer_Physical_Order=4*
G04 Layer_Color=16711680*
%FSLAX25Y25*%
%MOIN*%
G70*
G01*
G75*
%ADD22C,0.00600*%
%ADD23C,0.01772*%
D22*
X6804Y2534D02*
Y49102D01*
X6239Y1969D02*
X6804Y2534D01*
X6693Y49213D02*
X6804Y49102D01*
X43672Y13154D02*
X43812Y13293D01*
X43672Y3564D02*
Y13154D01*
X43812Y13293D02*
Y48391D01*
X40440Y3478D02*
X41950Y1969D01*
X43672Y3564D02*
X45234Y2002D01*
X40440Y3478D02*
Y49102D01*
X43307Y48895D02*
X43812Y48391D01*
X40440Y49102D02*
X40551Y49213D01*
X43307Y48895D02*
Y49213D01*
X25984Y5769D02*
Y47274D01*
X26742Y48031D01*
Y51545D01*
X26772Y51575D01*
X22835Y48819D02*
Y51575D01*
X21654Y47638D02*
X22835Y48819D01*
X24803Y48031D02*
Y49213D01*
X24016Y47244D02*
X24803Y48031D01*
X27842Y49911D02*
X29506Y51575D01*
X27842Y5467D02*
Y49911D01*
X29528Y10508D02*
Y49213D01*
Y10508D02*
X31324Y8711D01*
X27842Y5467D02*
X29253Y4056D01*
X29506Y51575D02*
X29528D01*
X29253Y4056D02*
X29639D01*
X25984Y5769D02*
X27953Y3801D01*
X31102Y1969D02*
X31324Y2191D01*
Y8711D01*
X27953Y1969D02*
Y3801D01*
X18504Y4331D02*
Y22206D01*
X18110Y22600D02*
X18504Y22206D01*
X18110Y22600D02*
Y40157D01*
X20472Y48524D02*
X21088Y49139D01*
X18110Y40157D02*
X19372Y41420D01*
X20472Y3543D02*
Y48524D01*
X17717Y47244D02*
Y49183D01*
X19180Y51575D02*
X19372Y51383D01*
Y41420D02*
Y51383D01*
X21088Y49139D02*
Y49457D01*
X17687Y49213D02*
X17717Y49183D01*
X14961Y8966D02*
Y49213D01*
X18898Y1969D02*
X20472Y3543D01*
X1969Y5201D02*
Y49628D01*
X3367Y2010D02*
Y4215D01*
Y48275D02*
X4247Y49155D01*
X3572Y4420D02*
Y5816D01*
X3367Y4215D02*
X3572Y4420D01*
X3367Y6021D02*
X3572Y5816D01*
X4247Y49155D02*
Y49213D01*
X1886Y5118D02*
X1969Y5201D01*
X3367Y6021D02*
Y48275D01*
X1969Y49628D02*
X4724Y52384D01*
Y52756D01*
X11417Y3543D02*
Y6978D01*
X9449Y1969D02*
Y49213D01*
X16142Y3971D02*
Y45669D01*
X12205Y7766D02*
Y49213D01*
X11417Y6978D02*
X12205Y7766D01*
X13780Y2463D02*
X14092Y2775D01*
X24016Y4331D02*
Y47244D01*
X21654Y1969D02*
Y47638D01*
X33071Y3543D02*
Y9236D01*
X35039Y2362D02*
X35433Y1969D01*
X35039Y2362D02*
Y49213D01*
X32283Y10024D02*
Y49213D01*
Y10024D02*
X33071Y9236D01*
X37795Y2756D02*
Y49213D01*
Y2756D02*
X38583Y1969D01*
X16142Y45669D02*
X17717Y47244D01*
X14092Y8098D02*
X14961Y8966D01*
X14092Y2775D02*
Y8098D01*
X45276Y4353D02*
Y51181D01*
Y4353D02*
X45358Y4270D01*
D23*
X5118Y18898D02*
D03*
Y41339D02*
D03*
X42126Y18898D02*
D03*
Y41339D02*
D03*
X42542Y54353D02*
D03*
X24803Y49213D02*
D03*
X22835Y51575D02*
D03*
X26772D02*
D03*
X29528Y49213D02*
D03*
X29639Y4056D02*
D03*
X17687Y49213D02*
D03*
X21088Y49457D02*
D03*
X14961Y49213D02*
D03*
X1886Y5118D02*
D03*
X4247Y49213D02*
D03*
X4724Y52756D02*
D03*
X11417Y3543D02*
D03*
X9449Y1969D02*
D03*
X16142Y3971D02*
D03*
X13780Y2463D02*
D03*
X24016Y4331D02*
D03*
X18504D02*
D03*
X21654Y1969D02*
D03*
X19180Y51575D02*
D03*
X18898Y1969D02*
D03*
X27953D02*
D03*
X33071Y3543D02*
D03*
X35433Y1969D02*
D03*
X31102D02*
D03*
X6239D02*
D03*
X29528Y51575D02*
D03*
X32283Y49213D02*
D03*
X35039D02*
D03*
X37795D02*
D03*
X40551D02*
D03*
X43307D02*
D03*
X12205D02*
D03*
X9449D02*
D03*
X6693D02*
D03*
X45276Y51181D02*
D03*
X38583Y1969D02*
D03*
X41950D02*
D03*
X45234Y2002D02*
D03*
X45358Y4270D02*
D03*
X24803Y1969D02*
D03*
X3367Y2010D02*
D03*
M02*
