G04*
G04 #@! TF.GenerationSoftware,Altium Limited,Altium Designer,20.0.12 (288)*
G04*
G04 Layer_Physical_Order=3*
G04 Layer_Color=128*
%FSLAX25Y25*%
%MOIN*%
G70*
G01*
G75*
%ADD24C,0.02000*%
G04:AMPARAMS|DCode=25|XSize=69.843mil|YSize=69.843mil|CornerRadius=0mil|HoleSize=0mil|Usage=FLASHONLY|Rotation=0.000|XOffset=0mil|YOffset=0mil|HoleType=Round|Shape=Relief|Width=10mil|Gap=10mil|Entries=4|*
%AMTHD25*
7,0,0,0.06984,0.04984,0.01000,45*
%
%ADD25THD25*%
%ADD26C,0.02984*%
D24*
X0Y0D02*
Y59055D01*
X47244D01*
Y0D02*
Y59055D01*
X0Y0D02*
X47244D01*
D25*
X5118Y18898D02*
D03*
Y41339D02*
D03*
X42126Y18898D02*
D03*
Y41339D02*
D03*
X42542Y54353D02*
D03*
X24803Y1969D02*
D03*
D26*
Y49213D02*
D03*
X22835Y51575D02*
D03*
X26772D02*
D03*
X29528Y49213D02*
D03*
X29639Y4056D02*
D03*
X17687Y49213D02*
D03*
X21088Y49457D02*
D03*
X14961Y49213D02*
D03*
X1886Y5118D02*
D03*
X4247Y49213D02*
D03*
X4724Y52756D02*
D03*
X11417Y3543D02*
D03*
X9449Y1969D02*
D03*
X16142Y3971D02*
D03*
X13780Y2463D02*
D03*
X24016Y4331D02*
D03*
X18504D02*
D03*
X21654Y1969D02*
D03*
X19180Y51575D02*
D03*
X18898Y1969D02*
D03*
X27953D02*
D03*
X33071Y3543D02*
D03*
X35433Y1969D02*
D03*
X31102D02*
D03*
X6239D02*
D03*
X29528Y51575D02*
D03*
X32283Y49213D02*
D03*
X35039D02*
D03*
X37795D02*
D03*
X40551D02*
D03*
X43307D02*
D03*
X12205D02*
D03*
X9449D02*
D03*
X6693D02*
D03*
X45276Y51181D02*
D03*
X38583Y1969D02*
D03*
X41950D02*
D03*
X45234Y2002D02*
D03*
X45358Y4270D02*
D03*
X3367Y2010D02*
D03*
M02*
