M48
;Layer_Color=9474304
;FILE_FORMAT=2:5
INCH,LZ
;TYPE=PLATED
T1F00S00C0.00984
%
T01
X0003367Y000201
X0006239Y0001969
X0009449
X0011417Y0003543
X001378Y0002463
X0016142Y0003971
X0018504Y0004331
X0018898Y0001969
X0021654
X0024803
X0024016Y0004331
X0029639Y0004056
X0031102Y0001969
X0027953
X0033071Y0003543
X0035433Y0001969
X0038583
X004195
X0045234Y0002002
X0045358Y000427
X0042126Y0018898
Y0041339
X0043307Y0049213
X0040551
X0037795
X0035039
X0032283
X0029528
Y0051575
X0026772
X0022835
X001918
X0017687Y0049213
X0014961
X0012205
X0009449
X0006693
X0004247Y0049213
X0004724Y0052756
X0005118Y0041339
Y0018898
X0001886Y0005118
X0021088Y0049457
X0024803Y0049213
X0045276Y0051181
X0042542Y0054353
M30
